<svg version="1.1" xmlns="http://www.w3.org/2000/svg" viewBox="0 0 347 435.872650588768" width="694" height="871.745301177536">
  <!-- svg-source:excalidraw -->
  
  <defs>
    <style>
      @font-face {
        font-family: "Virgil";
        src: url("https://excalidraw.com/Virgil.woff2");
      }
      @font-face {
        font-family: "Cascadia";
        src: url("https://excalidraw.com/Cascadia.woff2");
      }
    </style>
  </defs>
  <g stroke-linecap="round" transform="translate(62.6796875 232.605072463768) rotate(0 110.8203125 31.576171875)"><path d="M-1.01 -0.84 C73.47 0.69, 149.59 2.1, 222.33 0.48 M0.19 -0.15 C70.14 -1.08, 139.39 -1.59, 221.71 0.48 M223.6 -0.71 C223.12 25.82, 219.74 48.67, 221.37 63.13 M221.41 0.64 C222.32 13.48, 222.19 26.79, 222.21 63.8 M221.52 63.96 C148.8 61.49, 75.74 61.71, 1 63.8 M221.8 63.79 C158.02 61.15, 94.57 62.23, -0.39 62.75 M-1.5 64.25 C-0.42 39.72, 0.67 15.35, -0.2 1.48 M0.35 62.29 C-1.18 45.24, 0.53 27.81, -0.13 -0.92" stroke="#000000" stroke-width="1" fill="none"></path></g><g transform="translate(112 251.681244338768) rotate(0 61.5 12.5)"><text x="0" y="18" font-family="Virgil, Segoe UI Emoji" font-size="20px" fill="#000000" text-anchor="start" style="white-space: pre;" direction="ltr">PHP backend</text></g><g stroke-linecap="round" transform="translate(62.6796875 362.720306838768) rotate(0 110.8203125 31.576171875)"><path d="M0 1.05 C74.54 0.37, 148.35 2.37, 219.99 1.16 M0.39 -0.19 C75.48 -0.84, 150.86 -1.37, 222.06 -0.6 M219.74 1.62 C223.17 21.56, 223.19 43.92, 220.91 62.87 M222.09 -0.09 C220.75 22.8, 220.77 44.76, 221.6 63.36 M222.18 61.76 C173.3 63.33, 123.4 62.89, 1.15 62.67 M220.99 62.84 C151.96 63.01, 84.49 63.6, -0.79 63.22 M0.91 64.23 C-1.8 44.69, 0.45 25.92, -0.14 -1.96 M0.66 62.31 C1.02 39.42, 0.39 14.24, 0.96 0.74" stroke="#000000" stroke-width="1" fill="none"></path></g><g transform="translate(121.5 381.796478713768) rotate(0 52 12.5)"><text x="52" y="18" font-family="Virgil, Segoe UI Emoji" font-size="20px" fill="#000000" text-anchor="middle" style="white-space: pre;" direction="ltr">MySQL DB</text></g><g transform="translate(10 10) rotate(0 163.5 17.5)"><text x="0" y="25" font-family="Virgil, Segoe UI Emoji" font-size="28px" fill="#000000" text-anchor="start" style="white-space: pre;" direction="ltr">Application architecture</text></g><g stroke-linecap="round" transform="translate(62.6796875 97.80038496376801) rotate(0 110.8203125 31.576171875)"><path d="M-1.61 0.85 C50.59 2.01, 100.75 2.16, 220.92 -1.57 M-0.06 0.27 C70.95 0.91, 141.58 -0.03, 221.29 0.69 M222.93 -1.55 C220.6 20.7, 220.25 44.08, 222.57 63.98 M222.6 0.32 C220.75 18.65, 221.07 38.22, 221.64 63.33 M220.71 61.93 C176.8 66.33, 130.99 65.66, -1.6 62.16 M221.37 63.14 C155.97 63.25, 91.48 63.89, -0.52 63.17 M-0.88 64.65 C0.93 43.93, -0.08 26.57, 1.97 -1.21 M-0.5 62.74 C0.38 50.83, 0.64 37.23, 0.32 -0.55" stroke="#000000" stroke-width="1" fill="none"></path></g><g transform="translate(82 119.37655683876801) rotate(0 91.5 10)"><text x="0" y="14" font-family="Virgil, Segoe UI Emoji" font-size="16px" fill="#000000" text-anchor="start" style="white-space: pre;" direction="ltr">Static files / Frontend</text></g><g stroke-linecap="round"><g transform="translate(173.93800694045615 161.9492187499999) rotate(0 -0.4380069404561482 33.04133671224116)"><path d="M0.39 -1.18 C0.28 10.11, -0.11 56.01, -0.05 67.27 M-0.87 0.81 C-1.22 11.77, -1.37 54.24, -1.18 65.33" stroke="#000000" stroke-width="1" fill="none"></path></g><g transform="translate(173.93800694045615 161.9492187499999) rotate(0 -0.4380069404561482 33.04133671224116)"><path d="M-13.55 36.6 C-7.45 47.74, -5.35 56.83, 0.31 66.2 M-12.09 37.57 C-7.9 44.57, -6.71 52.03, -1.87 66.23" stroke="#000000" stroke-width="1" fill="none"></path></g><g transform="translate(173.93800694045615 161.9492187499999) rotate(0 -0.4380069404561482 33.04133671224116)"><path d="M6.97 36.5 C5.9 47.74, 0.83 56.87, 0.31 66.2 M8.43 37.47 C7.2 44.37, 2.96 51.86, -1.87 66.23" stroke="#000000" stroke-width="1" fill="none"></path></g></g><g stroke-linecap="round"><g transform="translate(174.6425400687708 229.2070312499999) rotate(0 -1.1425400687707565 -33.34004654787947)"><path d="M-0.33 0.54 C-1.04 -10.28, -3.68 -54.19, -3.98 -65.53 M1.7 -0.21 C1.34 -11.33, -1.03 -56.13, -1.71 -67.22" stroke="#000000" stroke-width="1" fill="none"></path></g><g transform="translate(174.6425400687708 229.2070312499999) rotate(0 -1.1425400687707565 -33.34004654787947)"><path d="M11.02 -41.04 C7.78 -46.94, 0.67 -56.84, -1.58 -66.58 M9.21 -39 C6.14 -46.46, 4.63 -55.82, -1.07 -66.56" stroke="#000000" stroke-width="1" fill="none"></path></g><g transform="translate(174.6425400687708 229.2070312499999) rotate(0 -1.1425400687707565 -33.34004654787947)"><path d="M-9.47 -39.89 C-6.07 -46.11, -6.54 -56.38, -1.58 -66.58 M-11.28 -37.85 C-8.74 -45.47, -4.64 -55.14, -1.07 -66.56" stroke="#000000" stroke-width="1" fill="none"></path></g></g><g stroke-linecap="round"><g transform="translate(172.7882518830104 297.8085937499999) rotate(0 0.7117481169896109 32.08893792285582)"><path d="M0.23 0.72 C0.67 11.18, 2.1 52.59, 2.53 62.87 M-1.11 0.05 C-0.85 10.66, 0.84 53.6, 1.36 64.13" stroke="#000000" stroke-width="1" fill="none"></path></g><g transform="translate(172.7882518830104 297.8085937499999) rotate(0 0.7117481169896109 32.08893792285582)"><path d="M-8.91 35.69 C-7.67 44.16, -5.13 52.93, 1.57 63.32 M-10.19 35.42 C-7.59 42.89, -3.4 52.16, 0.88 65.06" stroke="#000000" stroke-width="1" fill="none"></path></g><g transform="translate(172.7882518830104 297.8085937499999) rotate(0 0.7117481169896109 32.08893792285582)"><path d="M11.59 34.81 C6.92 43.57, 3.55 52.6, 1.57 63.32 M10.32 34.53 C7.4 42.28, 6.09 51.78, 0.88 65.06" stroke="#000000" stroke-width="1" fill="none"></path></g></g><g stroke-linecap="round"><g transform="translate(173.5564986780239 359.9257812499999) rotate(0 -0.05649867802395647 -31.418621343751454)"><path d="M1.03 -1.16 C0.81 -11.62, 0.07 -53.55, -0.31 -63.68 M0.11 0.85 C-0.33 -9.39, -0.73 -51.71, -1.14 -62.48" stroke="#000000" stroke-width="1" fill="none"></path></g><g transform="translate(173.5564986780239 359.9257812499999) rotate(0 -0.05649867802395647 -31.418621343751454)"><path d="M7.81 -34.15 C4.74 -46.26, 3.42 -54.04, -1.54 -60.95 M9.67 -34.16 C5.43 -45.24, 2.71 -56.02, -1.77 -63.23" stroke="#000000" stroke-width="1" fill="none"></path></g><g transform="translate(173.5564986780239 359.9257812499999) rotate(0 -0.05649867802395647 -31.418621343751454)"><path d="M-12.7 -33.7 C-7.93 -46.15, -1.42 -54.1, -1.54 -60.95 M-10.85 -33.71 C-7.55 -44.88, -2.74 -55.83, -1.77 -63.23" stroke="#000000" stroke-width="1" fill="none"></path></g></g></svg>