<svg version="1.1" xmlns="http://www.w3.org/2000/svg" viewBox="0 0 458 797.855072463768" width="916" height="1595.710144927536">
  <!-- svg-source:excalidraw -->
  
  <defs>
    <style>
      @font-face {
        font-family: "Virgil";
        src: url("https://excalidraw.com/Virgil.woff2");
      }
      @font-face {
        font-family: "Cascadia";
        src: url("https://excalidraw.com/Cascadia.woff2");
      }
    </style>
  </defs>
  <rect x="0" y="0" width="458" height="797.855072463768" fill="#ffffff"></rect><g stroke-linecap="round" transform="translate(10 163.855072463768) rotate(0 219 55)"><path d="M-0.94 0.5 C99.87 2.02, 199.49 2.11, 437.58 -0.91 M-0.03 0.16 C140.22 0.72, 280.24 0.17, 437.8 0.4 M439.29 -1.55 C436.82 36.93, 436.46 76.53, 438.93 110.83 M438.96 0.32 C437.13 32.93, 437.45 66.79, 438 110.18 M437.46 109.29 C347.78 112.93, 256.99 112.54, -0.93 109.42 M437.84 109.99 C309.25 110.33, 181.19 110.71, -0.3 110.01 M-0.88 111.49 C1.2 76.8, 0.19 45.46, 1.97 -1.21 M-0.5 109.59 C0.63 87.97, 0.9 64.66, 0.32 -0.55" stroke="#000000" stroke-width="1" fill="none"></path></g><g stroke-linecap="round" transform="translate(10 419.52173913043475) rotate(0 219 55)"><path d="M-0.62 0.39 C148.28 0.74, 294.85 0.3, 438.17 0.13 M-0.49 -0.45 C141.9 -1.7, 284.15 -1.71, 437.79 -0.07 M438.59 -1.81 C440.03 38.43, 436.98 78.6, 438.72 110.83 M437.35 0.66 C438.37 25.63, 437.68 52, 437.8 110.99 M438.42 110.12 C339.64 110.43, 242.95 111.58, -0.17 109.85 M438.36 110.39 C263.75 110.2, 89.41 110.43, 0.13 109.64 M0.23 108.09 C0.66 84.27, -0.84 55.46, -1.59 -0.46 M0.8 110.7 C0.31 74.45, 0.41 39.79, -0.08 -0.09" stroke="#000000" stroke-width="1" fill="none"></path></g><g stroke-linecap="round" transform="translate(10 677.855072463768) rotate(0 219 55)"><path d="M-0.39 -0.22 C99.74 1.13, 200.87 1.08, 438.03 -0.21 M0.13 0.27 C129.57 -1.46, 258.47 -1.36, 437.53 0.07 M439.37 -1.28 C440.18 37.36, 437.99 73.61, 438.86 111.75 M437.4 -0.24 C437.09 34.04, 438.48 68.02, 438.47 110.32 M438.34 109 C286.16 110.13, 134.16 110.01, -0.35 110.6 M438.19 110.1 C295.17 110.39, 152.47 110.94, 0.2 109.82 M-1.35 108.57 C2.33 86.17, 1.75 62.55, -1.63 1.07 M0.78 109.22 C-0.25 67.92, 0.04 27.6, -0.63 -0.47" stroke="#000000" stroke-width="1" fill="none"></path></g><g transform="translate(167.5 461.52173913043475) rotate(0 61.5 12.5)"><text x="0" y="18" font-family="Virgil, Segoe UI Emoji" font-size="20px" fill="#000000" text-anchor="start" style="white-space: pre;" direction="ltr">PHP backend</text></g><g stroke-linecap="round"><g transform="translate(230.1912440214861 272.855072463768) rotate(0 -1.1912440214860567 73.42212433883304)"><path d="M-0.2 1.14 C-0.46 25.46, -0.41 122.01, -0.56 146.16 M-1.77 0.69 C-2.33 24.63, -2.3 120.42, -1.8 144.29" stroke="#000000" stroke-width="1" fill="none"></path></g><g transform="translate(230.1912440214861 272.855072463768) rotate(0 -1.1912440214860567 73.42212433883304)"><path d="M-10.41 115.26 C-7.38 125.27, -3.52 136.23, -3.11 142.8 M-12.32 115.86 C-10.45 123.08, -6.92 128.9, -0.81 143.29" stroke="#000000" stroke-width="1" fill="none"></path></g><g transform="translate(230.1912440214861 272.855072463768) rotate(0 -1.1912440214860567 73.42212433883304)"><path d="M10.11 115.08 C5.23 125.13, 1.18 136.15, -3.11 142.8 M8.2 115.68 C5.67 122.81, 4.8 128.66, -0.81 143.29" stroke="#000000" stroke-width="1" fill="none"></path></g></g><g stroke-linecap="round"><g transform="translate(229.28132387086885 416.52173913043475) rotate(0 -0.28132387086878907 -72.09895705641563)"><path d="M-1.17 0.18 C-1.52 -23.56, -1.5 -118.58, -1.55 -142.74 M0.42 -0.78 C0.41 -24.82, 1.33 -120.49, 0.85 -144.37" stroke="#000000" stroke-width="1" fill="none"></path></g><g transform="translate(229.28132387086885 416.52173913043475) rotate(0 -0.28132387086878907 -72.09895705641563)"><path d="M11.49 -117.22 C9.2 -126.99, 2.16 -137.02, -0.5 -145.56 M10.9 -116.47 C6.91 -126.25, 3.87 -137.38, 0.26 -145.01" stroke="#000000" stroke-width="1" fill="none"></path></g><g transform="translate(229.28132387086885 416.52173913043475) rotate(0 -0.28132387086878907 -72.09895705641563)"><path d="M-9.03 -117.16 C-4.15 -126.75, -4.01 -136.8, -0.5 -145.56 M-9.62 -116.41 C-5.89 -126.32, -1.2 -137.47, 0.26 -145.01" stroke="#000000" stroke-width="1" fill="none"></path></g></g><g transform="translate(177.5 718.855072463768) rotate(0 51.5 25)"><text x="0" y="18" font-family="Virgil, Segoe UI Emoji" font-size="20px" fill="#000000" text-anchor="start" style="white-space: pre;" direction="ltr">MySQL DB</text><text x="0" y="43" font-family="Virgil, Segoe UI Emoji" font-size="20px" fill="#000000" text-anchor="start" style="white-space: pre;" direction="ltr"></text></g><g stroke-linecap="round"><g transform="translate(227.30865027509265 530.5217391304348) rotate(0 1.6913497249073544 74.87735160241522)"><path d="M1.04 0.66 C1.53 25.37, 3.03 123.84, 3.26 148.28 M0.12 -0.04 C0.43 24.87, 1.51 125.11, 2.3 149.79" stroke="#000000" stroke-width="1" fill="none"></path></g><g transform="translate(227.30865027509265 530.5217391304348) rotate(0 1.6913497249073544 74.87735160241522)"><path d="M-7.41 121.77 C-5.07 129.4, -3.17 138.96, 2.98 149.62 M-9.41 121.41 C-5.57 127.25, -2.74 133.94, 2.08 149.47" stroke="#000000" stroke-width="1" fill="none"></path></g><g transform="translate(227.30865027509265 530.5217391304348) rotate(0 1.6913497249073544 74.87735160241522)"><path d="M13.1 121.37 C8.75 129.3, 3.96 139, 2.98 149.62 M11.11 121.01 C10.61 126.81, 9.09 133.59, 2.08 149.47" stroke="#000000" stroke-width="1" fill="none"></path></g></g><g stroke-linecap="round"><g transform="translate(229.62340649506348 678.855072463768) rotate(0 -0.6234064950634206 -74.26474969550657)"><path d="M-0.78 -1.18 C-1.12 -26.05, -1.35 -124.67, -1.63 -149.35 M1 0.82 C0.53 -23.93, -1.52 -123.47, -2.25 -148.34" stroke="#000000" stroke-width="1" fill="none"></path></g><g transform="translate(229.62340649506348 678.855072463768) rotate(0 -0.6234064950634206 -74.26474969550657)"><path d="M6.73 -119.37 C3.41 -130.1, -0.02 -138.48, -1.1 -146.52 M9.42 -121.08 C4.57 -130.17, 0.77 -138.3, -2.59 -147.63" stroke="#000000" stroke-width="1" fill="none"></path></g><g transform="translate(229.62340649506348 678.855072463768) rotate(0 -0.6234064950634206 -74.26474969550657)"><path d="M-13.79 -118.88 C-10.31 -129.64, -6.95 -138.17, -1.1 -146.52 M-11.1 -120.58 C-9.42 -129.71, -6.68 -138, -2.59 -147.63" stroke="#000000" stroke-width="1" fill="none"></path></g></g><g transform="translate(65.5 10) rotate(0 163.5 17.5)"><text x="0" y="25" font-family="Virgil, Segoe UI Emoji" font-size="28px" fill="#000000" text-anchor="start" style="white-space: pre;" direction="ltr">Application architecture</text></g><g transform="translate(137.5 200.15942028985512) rotate(0 91.5 10)"><text x="0" y="14" font-family="Virgil, Segoe UI Emoji" font-size="16px" fill="#000000" text-anchor="start" style="white-space: pre;" direction="ltr">Static files / Frontend</text></g></svg>