<svg version="1.1" xmlns="http://www.w3.org/2000/svg" viewBox="0 0 847.751953125 239.77584134615384" width="1695.50390625" height="479.5516826923077">
  <!-- svg-source:excalidraw -->
  
  <defs>
    <style>
      @font-face {
        font-family: "Virgil";
        src: url("https://excalidraw.com/Virgil.woff2");
      }
      @font-face {
        font-family: "Cascadia";
        src: url("https://excalidraw.com/Cascadia.woff2");
      }
    </style>
  </defs>
  <rect x="0" y="0" width="847.751953125" height="239.77584134615384" fill="#ffffff"></rect><g stroke-linecap="round"><g transform="translate(497.85411658653834 160.009732100357) rotate(0 54.93785839233158 0.2359306267400001)"><path d="M0.67 -0.03 C18.91 0.3, 92.33 1.52, 110.32 1.56 M-0.44 -1.09 C17.67 -1.1, 91.96 -0.75, 109.95 -0.4" stroke="#000000" stroke-width="1" fill="none"></path></g><g transform="translate(497.85411658653834 160.009732100357) rotate(0 54.93785839233158 0.2359306267400001)"><path d="M81.6 11.4 C92.68 4.69, 100.97 3.29, 111.52 -2.04 M82.13 9.57 C93.7 4.93, 103.41 1.65, 109.29 -0.45" stroke="#000000" stroke-width="1" fill="none"></path></g><g transform="translate(497.85411658653834 160.009732100357) rotate(0 54.93785839233158 0.2359306267400001)"><path d="M81.82 -9.12 C92.75 -8.23, 100.95 -2.02, 111.52 -2.04 M82.35 -10.95 C93.86 -7.47, 103.49 -2.63, 109.29 -0.45" stroke="#000000" stroke-width="1" fill="none"></path></g></g><g transform="translate(314.841796875 10) rotate(0 67.16406249999997 24.334805253623195)"><text x="0" y="33.66961050724639" font-family="Virgil, Segoe UI Emoji" font-size="38.935688405797116px" fill="#000000" text-anchor="start" style="white-space: pre;" direction="ltr">Pipeline</text></g><g stroke-linecap="round" transform="translate(609.017578125 125.25240384615384) rotate(0 114.3671875 33.42578125)"><path d="M1.62 -1.53 C59.1 1.36, 116.92 0.84, 229.56 -1.59 M-0.41 -0.85 C67.89 -0.95, 135.26 -0.79, 229.23 0.71 M227.66 1.8 C228.08 20.33, 228.72 38.97, 229.6 68.7 M229.29 0.24 C229.17 25.89, 227.45 51.44, 227.88 66.81 M228.35 66.55 C165.93 64.38, 106.09 65.65, -0.19 67.97 M229.53 66.11 C141.67 67.28, 53.3 67.88, -0.27 67.36 M1.32 67.42 C-1.49 41.94, 0.54 17, 0.51 -1.66 M-0.36 67.82 C-0.08 45.73, 0.52 24.65, 0.92 -0.85" stroke="#000000" stroke-width="1" fill="none"></path></g><g transform="translate(670.884765625 133.67818509615384) rotate(0 52.5 25)"><text x="52.5" y="18" font-family="Virgil, Segoe UI Emoji" font-size="20px" fill="#000000" text-anchor="middle" style="white-space: pre;" direction="ltr">Deploy to</text><text x="52.5" y="43" font-family="Virgil, Segoe UI Emoji" font-size="20px" fill="#000000" text-anchor="middle" style="white-space: pre;" direction="ltr">kubernetes</text></g><g stroke-linecap="round" transform="translate(266.52208533653845 125.15625000000003) rotate(0 114.36718749999994 33.42578125)"><path d="M-1.57 -1.19 C79.91 0.61, 158.53 -0.99, 228.58 0.06 M-0.55 0.3 C50.67 -1.25, 101.39 -1.44, 227.93 0.13 M230.28 -1.53 C228.2 19.35, 229.68 40.82, 229.67 67.42 M229.21 -0.75 C227.4 21.11, 228.28 44.07, 228.26 67.73 M228.02 67.93 C157.78 65.85, 90.99 68.21, 0.28 67.78 M228.76 66 C173 64.95, 119.18 66.11, 0.1 66.12 M-0.44 65.87 C1.72 54.38, 1.63 38.63, -1.69 0.18 M-0.14 67.77 C-0.76 52.71, -0.54 37.76, -0.84 0.6" stroke="#000000" stroke-width="1" fill="none"></path></g><g transform="translate(286.8862680288461 133.58203124999997) rotate(0 94 25)"><text x="94" y="18" font-family="Virgil, Segoe UI Emoji" font-size="20px" fill="#000000" text-anchor="middle" style="white-space: pre;" direction="ltr">Build, test, lint --&gt;</text><text x="94" y="43" font-family="Virgil, Segoe UI Emoji" font-size="20px" fill="#000000" text-anchor="middle" style="white-space: pre;" direction="ltr">publish &amp; scan</text></g><g stroke-linecap="round" transform="translate(10 87.58052884615384) rotate(0 80.845703125 71.09765625000001)"><path d="M104.74 3.34 C115.74 5.29, 126.49 12.32, 135.2 19.21 C143.92 26.1, 152.48 35.26, 157.03 44.68 C161.57 54.1, 163.4 65.42, 162.47 75.73 C161.53 86.03, 157.52 97.42, 151.41 106.53 C145.31 115.64, 135.46 124.69, 125.84 130.39 C116.21 136.09, 104.95 139.18, 93.64 140.72 C82.32 142.27, 69.21 142.73, 57.94 139.67 C46.67 136.6, 34.66 129.54, 26.03 122.33 C17.41 115.12, 10.41 105.91, 6.19 96.42 C1.97 86.93, -0.15 75.61, 0.72 65.4 C1.59 55.19, 5.6 43.97, 11.41 35.18 C17.21 26.4, 26.02 18.49, 35.56 12.69 C45.1 6.89, 56.83 1.84, 68.65 0.39 C80.48 -1.06, 99.6 2.92, 106.53 4 C113.45 5.07, 110.39 5.65, 110.22 6.85 M102.29 2.17 C113.14 3.58, 124.43 11.19, 133.33 17.62 C142.23 24.04, 150.79 31.6, 155.7 40.74 C160.61 49.87, 163.41 62.12, 162.77 72.42 C162.13 82.73, 157.3 93.53, 151.85 102.58 C146.41 111.63, 139.44 120.23, 130.1 126.72 C120.75 133.21, 107.29 139.28, 95.77 141.52 C84.24 143.76, 72.1 142.89, 60.94 140.18 C49.79 137.47, 37.83 131.95, 28.86 125.27 C19.89 118.58, 11.91 109.55, 7.12 100.07 C2.32 90.59, -0.51 78.92, 0.06 68.4 C0.64 57.89, 5.02 45.95, 10.57 36.98 C16.12 28, 24.45 20.37, 33.37 14.57 C42.28 8.77, 52.52 4.37, 64.06 2.19 C75.6 0.01, 96.47 1.12, 102.63 1.51 C108.79 1.9, 101.4 3.28, 101.02 4.53" stroke="#000000" stroke-width="1" fill="none"></path></g><g transform="translate(11.345703125 133.67818509615384) rotate(0 79.5 25)"><text x="79.5" y="18" font-family="Virgil, Segoe UI Emoji" font-size="20px" fill="#000000" text-anchor="middle" style="white-space: pre;" direction="ltr">App Git Commit </text><text x="79.5" y="43" font-family="Virgil, Segoe UI Emoji" font-size="20px" fill="#000000" text-anchor="middle" style="white-space: pre;" direction="ltr">to production</text></g><g stroke-linecap="round"><g transform="translate(173.10081129807674 158.07318585388256) rotate(0 46.77428405614893 -1.1688743579970122)"><path d="M-0.51 -0.36 C14.83 -0.53, 76.1 -1.68, 91.65 -1.98 M1.42 -1.6 C17.2 -1.56, 78.91 -0.95, 94.06 -0.92" stroke="#000000" stroke-width="1" fill="none"></path></g><g transform="translate(173.10081129807674 158.07318585388256) rotate(0 46.77428405614893 -1.1688743579970122)"><path d="M65.2 8.19 C71.86 7.54, 79.07 4.65, 93.44 -1.26 M65.76 8.52 C75.96 4.84, 88.19 0.64, 93.87 -1.54" stroke="#000000" stroke-width="1" fill="none"></path></g><g transform="translate(173.10081129807674 158.07318585388256) rotate(0 46.77428405614893 -1.1688743579970122)"><path d="M65.33 -12.33 C71.8 -7.53, 78.97 -4.96, 93.44 -1.26 M65.89 -12.01 C76.03 -7.65, 88.21 -3.81, 93.87 -1.54" stroke="#000000" stroke-width="1" fill="none"></path></g></g></svg>