<svg version="1.1" xmlns="http://www.w3.org/2000/svg" viewBox="0 0 1113.2467447916672 1028.6150340544873" width="2226.4934895833344" height="2057.2300681089746">
  <!-- svg-source:excalidraw -->
  
  <defs>
    <style>
      @font-face {
        font-family: "Virgil";
        src: url("https://excalidraw.com/Virgil.woff2");
      }
      @font-face {
        font-family: "Cascadia";
        src: url("https://excalidraw.com/Cascadia.woff2");
      }
    </style>
  </defs>
  <g transform="translate(469.92252604166663 10) rotate(0 67.16406249999994 24.334805253623188)"><text x="0" y="33.66961050724639" font-family="Virgil, Segoe UI Emoji" font-size="38.935688405797116px" fill="#000000" text-anchor="start" style="white-space: pre;" direction="ltr">Pipeline</text></g><g stroke-linecap="round"><g transform="translate(492.2453926282051 188.62280924237868) rotate(0 41.85393547840806 -0.03719070909244948)"><path d="M-0.9 -0.08 C13.11 -0.03, 70.55 1.22, 84.61 1.24 M0.83 -1.16 C14.69 -1.58, 70.36 -1.07, 83.94 -0.73" stroke="#000000" stroke-width="1" fill="none"></path></g><g transform="translate(492.2453926282051 188.62280924237868) rotate(0 41.85393547840806 -0.03719070909244948)"><path d="M55.47 10 C65.76 4.84, 73.52 3.22, 85.07 0.4 M54.7 8.93 C65.88 4.34, 77.52 2.39, 84.25 -0.07" stroke="#000000" stroke-width="1" fill="none"></path></g><g transform="translate(492.2453926282051 188.62280924237868) rotate(0 41.85393547840806 -0.03719070909244948)"><path d="M55.78 -10.51 C66.12 -8.61, 73.78 -3.16, 85.07 0.4 M55.01 -11.59 C66.22 -8.48, 77.74 -2.75, 84.25 -0.07" stroke="#000000" stroke-width="1" fill="none"></path></g></g><g stroke-linecap="round"><g transform="translate(167.49208733974342 189.82492403748412) rotate(0 45.36627500489517 -0.5851818007470797)"><path d="M-0.08 0.54 C15.15 0.41, 77.11 -1.51, 92.31 -1.71 M-1.58 -0.22 C13.43 -0.13, 75.66 -0.09, 91.51 -0.52" stroke="#000000" stroke-width="1" fill="none"></path></g><g transform="translate(167.49208733974342 189.82492403748412) rotate(0 45.36627500489517 -0.5851818007470797)"><path d="M64.34 10.52 C73.1 4.52, 85.55 3.16, 92.64 0.98 M63.26 9.78 C72.89 7.14, 84.98 2.81, 92.17 -1.24" stroke="#000000" stroke-width="1" fill="none"></path></g><g transform="translate(167.49208733974342 189.82492403748412) rotate(0 45.36627500489517 -0.5851818007470797)"><path d="M64.11 -10 C72.81 -8.2, 85.34 -1.75, 92.64 0.98 M63.03 -10.74 C72.95 -5.8, 85.12 -2.57, 92.17 -1.24" stroke="#000000" stroke-width="1" fill="none"></path></g></g><g transform="translate(17.345703125 75.0350560897435) rotate(0 73.5 12.5)"><text x="73.5" y="18" font-family="Virgil, Segoe UI Emoji" font-size="20px" fill="#000000" text-anchor="middle" style="white-space: pre;" direction="ltr">Infrastructure</text></g><g stroke-linecap="round" transform="translate(10 117.76021634615378) rotate(0 80.845703125 71.09765625000001)"><path d="M51.15 5.92 C61.06 1.34, 75.38 0.6, 86.81 1.11 C98.23 1.63, 109.68 4.25, 119.7 9.02 C129.72 13.78, 139.98 21.06, 146.93 29.69 C153.88 38.31, 159.46 50.36, 161.41 60.76 C163.36 71.15, 162.21 82.26, 158.63 92.07 C155.04 101.87, 147.68 112.18, 139.91 119.57 C132.14 126.96, 122.81 132.54, 112.03 136.38 C101.25 140.22, 86.94 143.02, 75.24 142.6 C63.54 142.19, 51.8 138.92, 41.84 133.87 C31.87 128.81, 22.19 120.94, 15.47 112.26 C8.76 103.57, 3.65 92.1, 1.55 81.77 C-0.56 71.44, -0.36 59.88, 2.84 50.26 C6.05 40.64, 12.17 31.75, 20.76 24.05 C29.35 16.36, 48.01 7.53, 54.39 4.09 C60.77 0.66, 58.42 2.52, 59.03 3.46 M47.81 7.13 C57.41 1.91, 70.37 -0.52, 81.75 -0.62 C93.14 -0.72, 105.62 1.98, 116.12 6.54 C126.62 11.09, 137.68 18.57, 144.75 26.72 C151.82 34.86, 156.29 45.3, 158.52 55.4 C160.74 65.51, 160.56 77.04, 158.09 87.35 C155.62 97.65, 150.92 109.13, 143.69 117.25 C136.47 125.38, 125.46 132.17, 114.74 136.11 C104.03 140.04, 91.17 141.33, 79.39 140.86 C67.61 140.39, 54.59 137.79, 44.07 133.27 C33.55 128.74, 23.15 121.76, 16.29 113.71 C9.44 105.66, 5.43 94.92, 2.94 84.98 C0.45 75.03, -1.4 63.87, 1.35 54.05 C4.1 44.23, 11.86 34.13, 19.43 26.06 C27.01 17.99, 42.11 8.71, 46.81 5.61 C51.51 2.52, 46.96 6.25, 47.63 7.5" stroke="#000000" stroke-width="1" fill="none"></path></g><g transform="translate(48.845703125 176.35787259615378) rotate(0 42 12.5)"><text x="42" y="18" font-family="Virgil, Segoe UI Emoji" font-size="20px" fill="#000000" text-anchor="middle" style="white-space: pre;" direction="ltr">Git push</text></g><g stroke-linecap="round" transform="translate(264.768529647436 155.23026842948704) rotate(0 114.36718749999997 33.42578125)"><path d="M0.58 0.96 C74.95 2.77, 149.15 3.13, 227.21 -0.29 M0.79 0.26 C62.89 -2.06, 125.17 -0.65, 228.18 -0.29 M230.71 1.09 C230.28 22.61, 228.18 46.53, 228.14 68.48 M228.25 0.57 C228.19 15.86, 228.5 33.77, 229.15 67.3 M227.47 66.55 C168.88 63.6, 110.23 63.91, -1.04 67.57 M228.8 66.1 C148.42 66.6, 68.22 66.97, 0.71 66.51 M0.48 66.35 C-1.18 51.11, -0.38 36.32, 0.27 0.56 M0.98 66.55 C-0.65 44.4, -0.83 21.93, 0.87 0.55" stroke="#000000" stroke-width="1" fill="none"></path></g><g transform="translate(280.6419521233978 176.35787259615378) rotate(0 98.50000000000003 12.5)"><text x="98.5" y="18" font-family="Virgil, Segoe UI Emoji" font-size="20px" fill="#000000" text-anchor="middle" style="white-space: pre;" direction="ltr">Set cluster secrets</text></g><g stroke-linecap="round" transform="translate(578.291666666667 155.42558092948704) rotate(0 114.3671875 33.42578125)"><path d="M1.28 1.18 C78.02 -2.63, 152.48 -1.57, 227.37 1.26 M-0.62 0.52 C90.68 -1.85, 179.49 -0.82, 229.36 0.73 M227.54 -1.05 C228.04 26.06, 230.72 52.31, 229.39 65.53 M227.88 -0.46 C229.45 17.2, 229.57 33.14, 228.31 66.05 M227.05 65.47 C175.71 64.33, 126.15 66.23, 0.27 67.27 M228.01 66.63 C158.03 67.18, 87.71 65.88, 0.07 67.31 M-0.31 66.52 C0.5 45.46, 0.73 24.13, 1.53 -1.44 M-0.38 66.53 C-0.58 41.12, 0.75 13.4, 0.21 -0.67" stroke="#000000" stroke-width="1" fill="none"></path></g><g transform="translate(586.658854166667 176.35136217948704) rotate(0 106 12.5)"><text x="106" y="18" font-family="Virgil, Segoe UI Emoji" font-size="20px" fill="#000000" text-anchor="middle" style="white-space: pre;" direction="ltr">Deploy to Kubernetes</text></g><g stroke-linecap="round"><g transform="translate(492.2453926282051 411.81942382571214) rotate(0 42.362988600664835 0.03324043710834701)"><path d="M0.67 -0.03 C14.72 0.24, 71.37 1.2, 85.17 1.18 M-0.44 -1.09 C13.47 -1.16, 71 -1.07, 84.8 -0.78" stroke="#000000" stroke-width="1" fill="none"></path></g><g transform="translate(492.2453926282051 411.81942382571214) rotate(0 42.362988600664835 0.03324043710834701)"><path d="M56.47 11.05 C67.54 4.33, 75.82 2.91, 86.37 -2.43 M57 9.22 C68.55 4.57, 78.27 1.28, 84.14 -0.84" stroke="#000000" stroke-width="1" fill="none"></path></g><g transform="translate(492.2453926282051 411.81942382571214) rotate(0 42.362988600664835 0.03324043710834701)"><path d="M56.66 -9.47 C67.59 -8.59, 75.79 -2.39, 86.37 -2.43 M57.19 -11.3 C68.7 -7.83, 78.34 -3, 84.14 -0.84" stroke="#000000" stroke-width="1" fill="none"></path></g></g><g stroke-linecap="round"><g transform="translate(167.49208733974342 413.0215386208175) rotate(0 46.774284056148915 -1.1688743579970122)"><path d="M-0.51 -0.36 C14.83 -0.53, 76.1 -1.68, 91.65 -1.98 M1.42 -1.6 C17.2 -1.56, 78.91 -0.95, 94.06 -0.92" stroke="#000000" stroke-width="1" fill="none"></path></g><g transform="translate(167.49208733974342 413.0215386208175) rotate(0 46.774284056148915 -1.1688743579970122)"><path d="M65.2 8.19 C71.86 7.54, 79.07 4.65, 93.44 -1.26 M65.76 8.52 C75.96 4.84, 88.19 0.64, 93.87 -1.54" stroke="#000000" stroke-width="1" fill="none"></path></g><g transform="translate(167.49208733974342 413.0215386208175) rotate(0 46.774284056148915 -1.1688743579970122)"><path d="M65.33 -12.33 C71.8 -7.53, 78.97 -4.96, 93.44 -1.26 M65.89 -12.01 C76.03 -7.65, 88.21 -3.81, 93.87 -1.54" stroke="#000000" stroke-width="1" fill="none"></path></g></g><g transform="translate(48.845703125 298.2316706730769) rotate(0 42 12.5)"><text x="42" y="18" font-family="Virgil, Segoe UI Emoji" font-size="20px" fill="#000000" text-anchor="middle" style="white-space: pre;" direction="ltr">Frontend</text></g><g stroke-linecap="round" transform="translate(10 340.9568309294872) rotate(0 80.845703125 71.09765625000001)"><path d="M104.74 3.34 C115.74 5.29, 126.49 12.32, 135.2 19.21 C143.92 26.1, 152.48 35.26, 157.03 44.68 C161.57 54.1, 163.4 65.42, 162.47 75.73 C161.53 86.03, 157.52 97.42, 151.41 106.53 C145.31 115.64, 135.46 124.69, 125.84 130.39 C116.21 136.09, 104.95 139.18, 93.64 140.72 C82.32 142.27, 69.21 142.73, 57.94 139.67 C46.67 136.6, 34.66 129.54, 26.03 122.33 C17.41 115.12, 10.41 105.91, 6.19 96.42 C1.97 86.93, -0.15 75.61, 0.72 65.4 C1.59 55.19, 5.6 43.97, 11.41 35.18 C17.21 26.4, 26.02 18.49, 35.56 12.69 C45.1 6.89, 56.83 1.84, 68.65 0.39 C80.48 -1.06, 99.6 2.92, 106.53 4 C113.45 5.07, 110.39 5.65, 110.22 6.85 M102.29 2.17 C113.14 3.58, 124.43 11.19, 133.33 17.62 C142.23 24.04, 150.79 31.6, 155.7 40.74 C160.61 49.87, 163.41 62.12, 162.77 72.42 C162.13 82.73, 157.3 93.53, 151.85 102.58 C146.41 111.63, 139.44 120.23, 130.1 126.72 C120.75 133.21, 107.29 139.28, 95.77 141.52 C84.24 143.76, 72.1 142.89, 60.94 140.18 C49.79 137.47, 37.83 131.95, 28.86 125.27 C19.89 118.58, 11.91 109.55, 7.12 100.07 C2.32 90.59, -0.51 78.92, 0.06 68.4 C0.64 57.89, 5.02 45.95, 10.57 36.98 C16.12 28, 24.45 20.37, 33.37 14.57 C42.28 8.77, 52.52 4.37, 64.06 2.19 C75.6 0.01, 96.47 1.12, 102.63 1.51 C108.79 1.9, 101.4 3.28, 101.02 4.53" stroke="#000000" stroke-width="1" fill="none"></path></g><g transform="translate(48.845703125 399.5544871794872) rotate(0 42 12.5)"><text x="42" y="18" font-family="Virgil, Segoe UI Emoji" font-size="20px" fill="#000000" text-anchor="middle" style="white-space: pre;" direction="ltr">Git push</text></g><g stroke-linecap="round" transform="translate(264.9768629807694 378.4268830128205) rotate(0 114.36718749999997 33.42578125)"><path d="M-1.57 -1.19 C79.91 0.61, 158.53 -0.99, 228.58 0.06 M-0.55 0.3 C50.67 -1.25, 101.39 -1.44, 227.93 0.13 M230.28 -1.53 C228.2 19.35, 229.68 40.82, 229.67 67.42 M229.21 -0.75 C227.4 21.11, 228.28 44.07, 228.26 67.73 M228.02 67.93 C157.78 65.85, 90.99 68.21, 0.28 67.78 M228.76 66 C173 64.95, 119.18 66.11, 0.1 66.12 M-0.44 65.87 C1.72 54.38, 1.63 38.63, -1.69 0.18 M-0.14 67.77 C-0.76 52.71, -0.54 37.76, -0.84 0.6" stroke="#000000" stroke-width="1" fill="none"></path></g><g transform="translate(328.85028545673106 399.5544871794872) rotate(0 50.5 12.5)"><text x="50.5" y="18" font-family="Virgil, Segoe UI Emoji" font-size="20px" fill="#000000" text-anchor="middle" style="white-space: pre;" direction="ltr">Run tests</text></g><g stroke-linecap="round"><g transform="translate(810.5211588541667 411.5396157946428) rotate(0 28.866749000673508 1.2624726236730197)"><path d="M-1.02 0.7 C8.79 0.96, 49.02 1.05, 58.75 1.16 M0.64 0.03 C10.37 0.48, 48.9 2.06, 58.17 2.5" stroke="#000000" stroke-width="1" fill="none"></path></g><g transform="translate(810.5211588541667 411.5396157946428) rotate(0 28.866749000673508 1.2624726236730197)"><path d="M31.66 12.4 C37.91 7.85, 46.36 7.92, 58.47 2.33 M29.51 12.04 C39.96 8.17, 47.86 6.18, 57.35 2.43" stroke="#000000" stroke-width="1" fill="none"></path></g><g transform="translate(810.5211588541667 411.5396157946428) rotate(0 28.866749000673508 1.2624726236730197)"><path d="M32.52 -7.45 C38.46 -6.23, 46.67 -0.4, 58.47 2.33 M30.37 -7.81 C40.65 -5.23, 48.27 -0.77, 57.35 2.43" stroke="#000000" stroke-width="1" fill="none"></path></g></g><g stroke-linecap="round" transform="translate(578.291666666667 378.4268830128205) rotate(0 114.3671875 33.42578125)"><path d="M1.62 -1.53 C59.1 1.36, 116.92 0.84, 229.56 -1.59 M-0.41 -0.85 C67.89 -0.95, 135.26 -0.79, 229.23 0.71 M227.66 1.8 C228.08 20.33, 228.72 38.97, 229.6 68.7 M229.29 0.24 C229.17 25.89, 227.45 51.44, 227.88 66.81 M228.35 66.55 C165.93 64.38, 106.09 65.65, -0.19 67.97 M229.53 66.11 C141.67 67.28, 53.3 67.88, -0.27 67.36 M1.32 67.42 C-1.49 41.94, 0.54 17, 0.51 -1.66 M-0.36 67.82 C-0.08 45.73, 0.52 24.65, 0.92 -0.85" stroke="#000000" stroke-width="1" fill="none"></path></g><g transform="translate(654.658854166667 399.3526642628205) rotate(0 38 12.5)"><text x="38" y="18" font-family="Virgil, Segoe UI Emoji" font-size="20px" fill="#000000" text-anchor="middle" style="white-space: pre;" direction="ltr">Run lint</text></g><g stroke-linecap="round" transform="translate(874.5123697916672 378.4268830128205) rotate(0 114.3671875 33.42578125)"><path d="M0.42 -0.01 C62.2 2.74, 127.09 1.6, 228.8 -1.38 M0.42 -0.52 C68.37 -1.85, 137.68 -1.05, 229.33 -0.22 M228.99 -1.55 C231.1 20.79, 228.49 38.19, 229.26 68.3 M228.97 -0.93 C229.73 14.39, 229.38 27.11, 229.48 66.29 M229.43 67.24 C158.42 69.21, 87.76 67.77, 0.93 67.62 M228.2 66.85 C153.41 67.83, 78.14 67.85, -0.06 67.08 M-1.43 65.4 C-1.49 43, -0.69 22.94, -1.47 1.2 M-0.03 66.51 C-1.06 45.2, -1.1 24.55, -0.04 0.73" stroke="#000000" stroke-width="1" fill="none"></path></g><g transform="translate(934.3795572916672 399.3526642628205) rotate(0 54.5 12.5)"><text x="54.5" y="18" font-family="Virgil, Segoe UI Emoji" font-size="20px" fill="#000000" text-anchor="middle" style="white-space: pre;" direction="ltr">Build image</text></g><g stroke-linecap="round" transform="translate(874.5123697916672 511.8090444711539) rotate(0 114.3671875 33.425781250000014)"><path d="M-0.86 -0.7 C61.63 -1.83, 125.93 0.63, 229.69 -0.05 M0.83 0.04 C75.91 -2.17, 151.77 -1.05, 229.14 -0.34 M229.71 -0.77 C228.17 20.31, 229.84 40.85, 229.3 67.86 M228.52 -0.09 C228.91 24.01, 229.53 47.78, 228.8 66.98 M229.3 67.75 C166.57 65.8, 103.22 66.02, -1.42 68.13 M229.56 66.37 C154.98 65.83, 80.35 66.01, -0.14 66.94 M0.95 66.68 C-2.38 48.54, -2.21 26.5, 0.98 1.25 M0.56 67.44 C0.92 43.18, -0.41 19.78, -0.23 0.15" stroke="#000000" stroke-width="1" fill="none"></path></g><g transform="translate(885.3795572916672 532.7348257211539) rotate(0 103.5 12.5)"><text x="103.5" y="18" font-family="Virgil, Segoe UI Emoji" font-size="20px" fill="#000000" text-anchor="middle" style="white-space: pre;" direction="ltr">Publish to DockerHub</text></g><g stroke-linecap="round" transform="translate(578.291666666667 511.8090444711539) rotate(0 114.3671875 33.425781250000014)"><path d="M0.91 -1.12 C83.48 1.48, 170.81 1.94, 229.22 1.42 M-0.82 -0.6 C85.15 -0.69, 170.25 -1.28, 228.84 0.83 M226.78 -0.2 C226.43 20.02, 226.57 43.58, 230.22 67.11 M229.71 0.51 C229.56 21.69, 228.08 43.07, 228.34 67.72 M227.31 68.03 C138.43 67.76, 47.58 66.2, -0.99 67 M228.35 67.22 C156.32 67.61, 85.77 67.95, 0.54 66.16 M-1.31 65.09 C0.12 51.51, 1.61 37.61, -0.32 0.13 M-0.93 66.14 C0.84 46.04, -0.59 25.27, 0.34 -0.49" stroke="#000000" stroke-width="1" fill="none"></path></g><g transform="translate(586.158854166667 532.7348257211539) rotate(0 106.5 12.5)"><text x="106.5" y="18" font-family="Virgil, Segoe UI Emoji" font-size="20px" fill="#000000" text-anchor="middle" style="white-space: pre;" direction="ltr">Run vulnerability scan</text></g><g stroke-linecap="round" transform="translate(264.9768629807694 511.809044471154) rotate(0 114.36718749999997 33.42578125)"><path d="M-0.66 0.17 C86.02 2.31, 171.61 0.2, 228.61 -0.7 M-0.53 0.47 C52.11 0.1, 105.47 0.36, 228.14 -0.48 M227.2 0.09 C230.5 17.15, 230.12 33.4, 227.31 68.8 M229.33 0.12 C229.37 19.26, 228.99 36.21, 227.74 66.6 M227.28 65.59 C172.68 69.43, 118.92 66.54, -1.62 65.44 M228.82 66.29 C172.25 65.57, 115.95 64.88, 0.44 66.25 M-1.3 65.44 C-0.43 52.91, -0.72 37.09, 0.02 -1.87 M0.89 67.61 C-0.66 46.09, 0.86 24.16, -0.2 0.23" stroke="#000000" stroke-width="1" fill="none"></path></g><g transform="translate(273.3440504807694 532.734825721154) rotate(0 106.00000000000003 12.5)"><text x="106" y="18" font-family="Virgil, Segoe UI Emoji" font-size="20px" fill="#000000" text-anchor="middle" style="white-space: pre;" direction="ltr">Deploy to Kubernetes</text></g><g stroke-linecap="round"><g transform="translate(988.2815755208337 448.15745192307713) rotate(0 -1.3125125985995965 29.04768228114895)"><path d="M-0.23 -0.18 C-0.57 9.56, -1.46 48.41, -1.89 57.92 M-1.81 -1.32 C-2.25 8.66, -2.08 49.59, -2.39 59.41" stroke="#000000" stroke-width="1" fill="none"></path></g><g transform="translate(988.2815755208337 448.15745192307713) rotate(0 -1.3125125985995965 29.04768228114895)"><path d="M-12.3 33.44 C-9.28 40.38, -7.98 47.25, -3.45 57.99 M-12.34 32.08 C-9.14 39.71, -6.41 47.85, -2.13 58.87" stroke="#000000" stroke-width="1" fill="none"></path></g><g transform="translate(988.2815755208337 448.15745192307713) rotate(0 -1.3125125985995965 29.04768228114895)"><path d="M7.56 33.67 C4.4 40.5, -0.48 47.3, -3.45 57.99 M7.52 32.31 C5.02 39.95, 2.05 48.02, -2.13 58.87" stroke="#000000" stroke-width="1" fill="none"></path></g></g><g stroke-linecap="round"><g transform="translate(872.0120442708333 544.5960703478697) rotate(0 -32.84933542654534 0.6387553732842264)"><path d="M-1.02 -0.87 C-11.79 -0.57, -54.7 1.83, -65.15 2.15 M0.64 1.29 C-10.28 1.2, -55.57 0.2, -66.34 0.32" stroke="#000000" stroke-width="1" fill="none"></path></g><g transform="translate(872.0120442708333 544.5960703478697) rotate(0 -32.84933542654534 0.6387553732842264)"><path d="M-39.52 -10.49 C-44.39 -5.77, -53.59 -2.96, -67.94 -1.17 M-38.77 -9.75 C-43.82 -7.58, -49.4 -4.87, -65.85 0.61" stroke="#000000" stroke-width="1" fill="none"></path></g><g transform="translate(872.0120442708333 544.5960703478697) rotate(0 -32.84933542654534 0.6387553732842264)"><path d="M-39.68 10.03 C-44.58 9.46, -53.73 6.97, -67.94 -1.17 M-38.94 10.77 C-43.96 8.53, -49.52 6.82, -65.85 0.61" stroke="#000000" stroke-width="1" fill="none"></path></g></g><g stroke-linecap="round"><g transform="translate(581.0550130208333 545.5679145640577) rotate(0 -38.55396183410346 -0.3330888429036065)"><path d="M0.76 1 C-11.93 0.82, -63.93 -1.38, -77.09 -1.67 M-0.3 0.48 C-13.04 0.52, -65.3 0.22, -77.87 -0.32" stroke="#000000" stroke-width="1" fill="none"></path></g><g transform="translate(581.0550130208333 545.5679145640577) rotate(0 -38.55396183410346 -0.3330888429036065)"><path d="M-47.8 -9.44 C-56.44 -8.97, -61.21 -5.42, -76.84 -1.62 M-50.05 -10.08 C-60.11 -6.68, -71.07 -2.57, -78.48 0.24" stroke="#000000" stroke-width="1" fill="none"></path></g><g transform="translate(581.0550130208333 545.5679145640577) rotate(0 -38.55396183410346 -0.3330888429036065)"><path d="M-48.23 11.07 C-56.69 6.96, -61.36 5.93, -76.84 -1.62 M-50.48 10.43 C-60.34 6.08, -71.14 2.44, -78.48 0.24" stroke="#000000" stroke-width="1" fill="none"></path></g></g><g stroke-linecap="round"><g transform="translate(492.2453926282051 724.3845279923787) rotate(0 41.944787903655424 0.5036647139749277)"><path d="M-0.35 1.17 C13.79 1.45, 70.1 1.58, 84.24 1.39 M1.66 0.74 C15.72 0.68, 69.67 -0.5, 83.39 -0.47" stroke="#000000" stroke-width="1" fill="none"></path></g><g transform="translate(492.2453926282051 724.3845279923787) rotate(0 41.944787903655424 0.5036647139749277)"><path d="M57.26 10.4 C63.16 8.28, 67.86 3.96, 81.59 -0.06 M54.66 10.91 C65.16 7.08, 74.24 3.45, 84.31 0.13" stroke="#000000" stroke-width="1" fill="none"></path></g><g transform="translate(492.2453926282051 724.3845279923787) rotate(0 41.944787903655424 0.5036647139749277)"><path d="M57.03 -10.11 C62.94 -7.15, 67.7 -6.37, 81.59 -0.06 M54.43 -9.61 C64.85 -6.36, 74.01 -2.91, 84.31 0.13" stroke="#000000" stroke-width="1" fill="none"></path></g></g><g stroke-linecap="round"><g transform="translate(167.4920873397435 725.5866427874842) rotate(0 46.53527713605992 -1.1768136180029671)"><path d="M1.17 0.18 C16.67 0.13, 77.71 -0.33, 92.74 -0.63 M0.33 -0.78 C15.74 -1.16, 76.48 -2.55, 92.06 -2.53" stroke="#000000" stroke-width="1" fill="none"></path></g><g transform="translate(167.4920873397435 725.5866427874842) rotate(0 46.53527713605992 -1.1768136180029671)"><path d="M64.3 8.93 C72.53 3.45, 78.63 0.12, 92.48 -1.63 M64.81 8.16 C71.01 5.37, 77.29 4.45, 92.67 -1.64" stroke="#000000" stroke-width="1" fill="none"></path></g><g transform="translate(167.4920873397435 725.5866427874842) rotate(0 46.53527713605992 -1.1768136180029671)"><path d="M64.04 -11.59 C72.29 -11.38, 78.46 -9.01, 92.48 -1.63 M64.55 -12.36 C70.96 -10.57, 77.3 -6.91, 92.67 -1.64" stroke="#000000" stroke-width="1" fill="none"></path></g></g><g transform="translate(50.845703125000085 610.7967748397435) rotate(0 40 12.5)"><text x="40" y="18" font-family="Virgil, Segoe UI Emoji" font-size="20px" fill="#000000" text-anchor="middle" style="white-space: pre;" direction="ltr">Backend</text></g><g stroke-linecap="round" transform="translate(10.000000000000085 653.5219350961538) rotate(0 80.845703125 71.09765625000003)"><path d="M53.04 4.86 C62.99 0.74, 76.25 0.01, 87.74 1.04 C99.24 2.07, 111.87 5.72, 122.02 11.06 C132.17 16.4, 142.21 24.44, 148.62 33.06 C155.03 41.68, 158.84 52.61, 160.49 62.77 C162.14 72.93, 161.96 84.36, 158.52 94.02 C155.09 103.68, 148.2 113.43, 139.88 120.71 C131.57 127.98, 119.81 134.04, 108.61 137.68 C97.42 141.32, 84.19 143.48, 72.71 142.55 C61.22 141.62, 49.64 137.66, 39.69 132.09 C29.75 126.52, 19.39 117.83, 13.04 109.11 C6.68 100.39, 3.03 89.71, 1.56 79.77 C0.09 69.83, 0.75 59.21, 4.22 49.47 C7.69 39.74, 12.41 29.42, 22.4 21.38 C32.38 13.34, 55.62 4.67, 64.13 1.24 C72.63 -2.19, 73.18 -0.43, 73.44 0.79 M116.7 7.07 C127.3 10.62, 138.64 21.19, 145.77 29.26 C152.91 37.33, 157.45 45.45, 159.51 55.51 C161.58 65.57, 161.1 79.3, 158.16 89.62 C155.22 99.93, 149.35 109.91, 141.88 117.41 C134.4 124.91, 123.96 130.32, 113.32 134.62 C102.68 138.91, 89.77 143.34, 78.05 143.19 C66.33 143.03, 53.31 138.6, 43 133.69 C32.69 128.78, 23.04 121.63, 16.19 113.75 C9.33 105.86, 3.97 96.44, 1.88 86.39 C-0.21 76.34, 0.57 63.5, 3.64 53.46 C6.7 43.41, 13.05 33.89, 20.27 26.11 C27.49 18.33, 36.76 11.18, 46.98 6.79 C57.19 2.39, 69.78 -0.54, 81.54 -0.25 C93.31 0.03, 111.64 6.76, 117.55 8.51 C123.46 10.26, 117.53 9.57, 116.99 10.26" stroke="#000000" stroke-width="1" fill="none"></path></g><g transform="translate(48.845703125000085 712.1195913461538) rotate(0 42 12.5)"><text x="42" y="18" font-family="Virgil, Segoe UI Emoji" font-size="20px" fill="#000000" text-anchor="middle" style="white-space: pre;" direction="ltr">Git push</text></g><g stroke-linecap="round" transform="translate(264.5601963141029 690.9919871794871) rotate(0 114.36718749999994 33.42578125)"><path d="M-0.83 -1.53 C78.67 2.15, 155.33 2.61, 227.62 1.37 M0.72 0.78 C70.85 1.79, 140.85 0.82, 228.64 -0.4 M228.52 -1.7 C230.95 23.55, 229.45 50.51, 228.13 66.22 M227.84 0.81 C228.34 27.59, 228.19 53.86, 228.17 66.4 M227.23 65.62 C152.17 64.98, 73.83 65.06, -1.38 65.73 M228.54 66.61 C144.86 66.45, 61.38 65.71, 0.85 67.18 M-0.36 66.86 C0.83 48.95, 1.47 31.11, -1.96 -1.27 M0.44 66.82 C1.33 41.56, -0.08 15.06, -0.97 -0.91" stroke="#000000" stroke-width="1" fill="none"></path></g><g transform="translate(328.43361879006454 712.1195913461538) rotate(0 50.5 12.5)"><text x="50.5" y="18" font-family="Virgil, Segoe UI Emoji" font-size="20px" fill="#000000" text-anchor="middle" style="white-space: pre;" direction="ltr">Run tests</text></g><g stroke-linecap="round"><g transform="translate(810.5211588541667 724.1047199613095) rotate(0 28.75887273562455 0.5073076001673371)"><path d="M-1.08 0.25 C8.83 0.45, 48.6 0.54, 58.59 0.63 M0.56 -0.67 C10.43 -0.29, 48.26 1.29, 57.93 1.68" stroke="#000000" stroke-width="1" fill="none"></path></g><g transform="translate(810.5211588541667 724.1047199613095) rotate(0 28.75887273562455 0.5073076001673371)"><path d="M30.67 11.39 C35.11 10.15, 41.68 8.3, 58.08 3.33 M30.86 11.38 C37.24 7.81, 43.76 5.4, 58.6 2.36" stroke="#000000" stroke-width="1" fill="none"></path></g><g transform="translate(810.5211588541667 724.1047199613095) rotate(0 28.75887273562455 0.5073076001673371)"><path d="M31.49 -8.46 C35.64 -5.15, 42.03 -2.45, 58.08 3.33 M31.68 -8.47 C38.02 -7.12, 44.34 -4.62, 58.6 2.36" stroke="#000000" stroke-width="1" fill="none"></path></g></g><g stroke-linecap="round" transform="translate(578.291666666667 690.9919871794871) rotate(0 114.3671875 33.42578125)"><path d="M0.77 -1.31 C58.66 -1.52, 116.23 -0.27, 230.14 -0.9 M0.76 0.18 C87.75 -1.27, 175.51 -0.6, 229.31 0.13 M227.73 0.26 C229.56 18.74, 227.53 40.67, 227.76 65.93 M229.68 -0.22 C229.84 13.49, 228.83 28.51, 229.56 66.5 M227.56 67.7 C179.24 66.97, 130.81 69.5, -1.3 65.99 M229.32 67.53 C165.13 68, 102.16 66.91, 0.24 66.22 M0.23 68.51 C0.53 46.05, -1.28 30.89, -1.5 0.89 M0.52 66.27 C-0.15 42.9, -0.89 20.91, 0.71 -0.97" stroke="#000000" stroke-width="1" fill="none"></path></g><g transform="translate(654.658854166667 711.9177684294871) rotate(0 38 12.5)"><text x="38" y="18" font-family="Virgil, Segoe UI Emoji" font-size="20px" fill="#000000" text-anchor="middle" style="white-space: pre;" direction="ltr">Run lint</text></g><g stroke-linecap="round" transform="translate(874.5123697916672 690.9919871794871) rotate(0 114.3671875 33.42578125)"><path d="M1.23 -1.11 C74.71 1.63, 148.08 0.6, 230.18 1.57 M-0.21 -0.1 C82 0.16, 165.38 -0.28, 228.64 -0.72 M230.13 -0.61 C227.76 27.94, 227.42 51.01, 226.94 68.47 M229.3 -0.56 C228.92 20.02, 230.19 38.87, 227.85 66.13 M227.64 65.47 C141.41 68.97, 55.04 66.96, -0.39 66.37 M228.58 67.7 C156.84 68.15, 84.54 67.76, -0.15 66.86 M0.54 64.89 C-1.35 45.12, -1.58 20.85, 0.88 -0.06 M-0.17 65.89 C-1.26 41.29, 0.36 14.69, -0.9 0.63" stroke="#000000" stroke-width="1" fill="none"></path></g><g stroke-linecap="round"><g transform="translate(987.7930877350934 760.7225560897436) rotate(0 -0.7264649207609182 26.726400074998423)"><path d="M1.11 0.72 C0.85 9.45, -1.4 44.68, -2.17 53.4 M0.23 0.06 C-0.04 8.92, -1.78 42.37, -2.56 51.41" stroke="#000000" stroke-width="1" fill="none"></path></g><g transform="translate(987.7930877350934 760.7225560897436) rotate(0 -0.7264649207609182 26.726400074998423)"><path d="M-8.77 27.63 C-7.5 31.61, -6.31 37.47, -1.21 52.76 M-9.09 25.33 C-7.53 34.65, -5.63 41.68, -1.57 50.92" stroke="#000000" stroke-width="1" fill="none"></path></g><g transform="translate(987.7930877350934 760.7225560897436) rotate(0 -0.7264649207609182 26.726400074998423)"><path d="M9.4 28.84 C6.16 32.69, 2.86 38.25, -1.21 52.76 M9.08 26.55 C4.92 35.33, 1.1 41.98, -1.57 50.92" stroke="#000000" stroke-width="1" fill="none"></path></g></g><g stroke-linecap="round"><g transform="translate(579.3492838541665 853.5338096493783) rotate(0 -38.867882582039215 -0.5989916720737938)"><path d="M1.07 0.25 C-12.06 -0.11, -64.53 -1.32, -77.71 -1.45 M0.18 -0.66 C-13.24 -0.89, -65.61 0.31, -78.81 0.02" stroke="#000000" stroke-width="1" fill="none"></path></g><g transform="translate(579.3492838541665 853.5338096493783) rotate(0 -38.867882582039215 -0.5989916720737938)"><path d="M-50.23 -10.82 C-61.86 -6.97, -71.33 -0.61, -78.51 -0.2 M-50.52 -9.63 C-56.92 -8.56, -61.69 -6.51, -79.27 -0.88" stroke="#000000" stroke-width="1" fill="none"></path></g><g transform="translate(579.3492838541665 853.5338096493783) rotate(0 -38.867882582039215 -0.5989916720737938)"><path d="M-50.17 9.7 C-61.94 5.51, -71.44 3.81, -78.51 -0.2 M-50.46 10.89 C-57.05 7.55, -61.83 5.19, -79.27 -0.88" stroke="#000000" stroke-width="1" fill="none"></path></g></g><g transform="translate(929.7555338541667 701.2928685897438) rotate(0 63.5 25)"><text x="63.5" y="18" font-family="Virgil, Segoe UI Emoji" font-size="20px" fill="#000000" text-anchor="middle" style="white-space: pre;" direction="ltr">Run static</text><text x="63.5" y="43" font-family="Virgil, Segoe UI Emoji" font-size="20px" fill="#000000" text-anchor="middle" style="white-space: pre;" direction="ltr">code analyse</text></g><g stroke-linecap="round" transform="translate(873.0084635416672 819.5090367273044) rotate(0 114.3671875 33.42578125)"><path d="M1.37 0.13 C52.42 0.38, 103.48 2.84, 229.76 1.53 M-0.4 0.57 C74.01 0.35, 146.77 -0.5, 229.49 -0.43 M228.1 1.97 C228.23 20.02, 227.41 43.5, 228.6 68.74 M228.29 0.4 C229.93 18.26, 228.23 36.51, 229.5 66.16 M227.61 68 C147.38 64.42, 68.25 64.79, 0.27 68.02 M229.06 66.61 C142.27 68.15, 55.17 68.79, 0.43 66.95 M-1.27 68.57 C-1.68 42.15, 0.7 15.61, 1.66 1.04 M-0.91 66.88 C0.82 49.7, -0.78 35.12, 0.49 0.13" stroke="#000000" stroke-width="1" fill="none"></path></g><g transform="translate(932.8756510416672 840.4348179773044) rotate(0 54.5 12.5)"><text x="54.5" y="18" font-family="Virgil, Segoe UI Emoji" font-size="20px" fill="#000000" text-anchor="middle" style="white-space: pre;" direction="ltr">Build image</text></g><g stroke-linecap="round" transform="translate(576.5859375000002 819.5090367273044) rotate(0 114.3671875 33.42578125)"><path d="M1.4 -0.9 C55.12 1.42, 108.38 1.38, 229.09 -0.42 M0.58 0.13 C65.95 -2.04, 132.84 -1.74, 228.85 0.6 M227.76 -0.92 C226.73 19.65, 228.39 37.95, 228.3 67.98 M229.56 -0.36 C227.55 15.57, 229.2 31.9, 229.23 66.21 M227.43 65.99 C178.21 67.68, 128.72 69.33, 1.35 66.54 M228.97 66.22 C137.27 66.3, 46.54 66.39, 0.71 67.08 M-1.5 67.74 C1.3 53.29, 2.08 40.88, -1.16 -0.34 M0.71 65.88 C-0.28 53.88, 1.1 39.77, -0.36 -0.78" stroke="#000000" stroke-width="1" fill="none"></path></g><g transform="translate(587.4531250000002 840.4348179773044) rotate(0 103.5 12.5)"><text x="103.5" y="18" font-family="Virgil, Segoe UI Emoji" font-size="20px" fill="#000000" text-anchor="middle" style="white-space: pre;" direction="ltr">Publish to DockerHub</text></g><g stroke-linecap="round"><g transform="translate(869.4794921875 853.1415816422211) rotate(0 -28.4343764167931 -0.20676366491653653)"><path d="M-0.82 -0.89 C-10.51 -1.26, -48.42 -1.82, -57.82 -1.65 M0.95 1.26 C-8.39 0.97, -45.72 -0.03, -55.57 -0.53" stroke="#000000" stroke-width="1" fill="none"></path></g><g transform="translate(869.4794921875 853.1415816422211) rotate(0 -28.4343764167931 -0.20676366491653653)"><path d="M-29.94 -10.72 C-38.62 -7.04, -44.55 -4.47, -56.5 0.75 M-28.6 -8.59 C-35.63 -5.76, -43.97 -3.51, -55.03 0.05" stroke="#000000" stroke-width="1" fill="none"></path></g><g transform="translate(869.4794921875 853.1415816422211) rotate(0 -28.4343764167931 -0.20676366491653653)"><path d="M-30.66 8.75 C-39.21 6.05, -44.9 2.25, -56.5 0.75 M-29.32 10.88 C-36.21 8.13, -44.35 4.79, -55.03 0.05" stroke="#000000" stroke-width="1" fill="none"></path></g></g><g stroke-linecap="round" transform="translate(264.5601963141029 951.7634715544873) rotate(0 114.36718749999997 33.42578125)"><path d="M-0.27 0.33 C71.39 1.47, 141.28 -1.36, 228.55 0.4 M-0.09 -0.8 C90.85 0.01, 181.04 -0.3, 228.63 0.18 M229.32 0.84 C228.54 22.63, 226.77 43.79, 229.64 65.94 M227.76 -0.04 C229.22 19.76, 228.08 39.25, 228.75 66.73 M228.29 68.32 C144.19 67.58, 58.91 69.05, 1.07 66.16 M228.42 66.49 C167.11 65.75, 106.68 64.38, 0.61 66.15 M1.68 67.92 C-1.26 46.55, 2.41 26.66, 0.57 0.62 M-0.79 67.42 C0.36 41.7, 0.18 17.48, -0.8 0.16" stroke="#000000" stroke-width="1" fill="none"></path></g><g transform="translate(272.927383814103 972.6892528044873) rotate(0 106 12.5)"><text x="106" y="18" font-family="Virgil, Segoe UI Emoji" font-size="20px" fill="#000000" text-anchor="middle" style="white-space: pre;" direction="ltr">Deploy to Kubernetes</text></g><g stroke-linecap="round" transform="translate(264.5601963141029 819.5090367273044) rotate(0 114.36718749999997 33.42578125)"><path d="M1.44 1.57 C71.36 2.55, 141.03 0.61, 228.54 -0.81 M-0.09 -0.72 C84.78 -0.72, 168.16 0.31, 228.48 -0.27 M226.94 1.62 C228.28 28.53, 227.98 54.42, 227.61 65.95 M227.85 -0.72 C230.05 22.07, 229.78 44.88, 227.93 66.19 M228.35 66.37 C144.99 67.03, 62.06 65.56, 1.69 67.51 M228.58 66.86 C167.1 65.51, 105.31 65.64, -0.83 66.31 M0.88 66.79 C2.16 42.08, -0.66 14.89, -1.93 -1.83 M-0.9 67.48 C0.02 46.71, -0.84 25.54, -0.33 0.77" stroke="#000000" stroke-width="1" fill="none"></path></g><g transform="translate(272.427383814103 840.4348179773044) rotate(0 106.5 12.5)"><text x="106.5" y="18" font-family="Virgil, Segoe UI Emoji" font-size="20px" fill="#000000" text-anchor="middle" style="white-space: pre;" direction="ltr">Run vulnerability scan</text></g><g stroke-linecap="round"><g transform="translate(375.5092772708605 890.8793971137757) rotate(0 1.4056426175115462 27.16290518537778)"><path d="M-0.31 1.04 C-0.13 9.6, 0.45 43.66, 1.02 52.16 M1.72 0.54 C2.27 9.25, 2.94 44.96, 3.13 53.78" stroke="#000000" stroke-width="1" fill="none"></path></g><g transform="translate(375.5092772708605 890.8793971137757) rotate(0 1.4056426175115462 27.16290518537778)"><path d="M-4.54 27.58 C-3.11 38.16, -0.49 43.33, 3.95 55.2 M-6.21 30.14 C-3.73 35.89, -0.15 42.41, 2.89 52.85" stroke="#000000" stroke-width="1" fill="none"></path></g><g transform="translate(375.5092772708605 890.8793971137757) rotate(0 1.4056426175115462 27.16290518537778)"><path d="M13.26 27.21 C9.5 37.85, 6.94 43.13, 3.95 55.2 M11.59 29.78 C9.29 35.79, 8.09 42.42, 2.89 52.85" stroke="#000000" stroke-width="1" fill="none"></path></g></g></svg>